Coordinates
version=1
nRows=10
nColumns=63
inDegrees=yes

Units are S.I. units (second, meters, Newtons, ...)
If the header above contains a line with 'inDegrees', this indicates whether rotational values are in degrees (yes) or radians (no).

endheader
time	pelvis_tilt	pelvis_list	pelvis_rotation	pelvis_tx	pelvis_ty	pelvis_tz	hip_flexion_r	hip_adduction_r	hip_rotation_r	knee_angle_r	knee_angle_r_beta	ankle_angle_r	subtalar_angle_r	mtp_angle_r	hip_flexion_l	hip_adduction_l	hip_rotation_l	knee_angle_l	knee_angle_l_beta	ankle_angle_l	subtalar_angle_l	mtp_angle_l	L5_S1_Flex_Ext	L5_S1_Lat_Bending	L5_S1_axial_rotation	L4_L5_Flex_Ext	L4_L5_Lat_Bending	L4_L5_axial_rotation	L3_L4_Flex_Ext	L3_L4_Lat_Bending	L3_L4_axial_rotation	L2_L3_Flex_Ext	L2_L3_Lat_Bending	L2_L3_axial_rotation	L1_L2_Flex_Ext	L1_L2_Lat_Bending	L1_L2_axial_rotation	L1_T12_Flex_Ext	L1_T12_Lat_Bending	L1_T12_axial_rotation	Abs_r3	Abs_r2	Abs_r1	Abs_t1	Abs_t2	neck_flexion	neck_bending	neck_rotation	arm_flex_r	arm_add_r	arm_rot_r	elbow_flex_r	pro_sup_r	wrist_flex_r	wrist_dev_r	arm_flex_l	arm_add_l	arm_rot_l	elbow_flex_l	pro_sup_l	wrist_flex_l	wrist_dev_l
      1.26666667	      1.70942453	     -8.55392047	     85.98566823	      0.16587808	      1.01269722	      0.44124637	      9.23140476	      0.34168725	     -9.48395685	     10.61928861	      0.18534155	     22.38009491	      7.27119414	      0.00000000	      8.91307524	     -1.32939554	     -3.48846230	      6.55687980	      0.11443914	     25.01760217	      3.05982703	      0.00000000	      0.18860580	      0.36824655	      1.24846716	      0.35025983	      0.48976791	      1.32649636	      0.30986046	      0.89535467	      1.32649636	      0.21555757	      0.89535467	      1.09240877	      0.17513934	      0.75092837	      1.01437957	      0.10776935	      0.57041391	      0.93635037	      1.34719235	      4.16567864	      6.94359983	      0.00000000	      0.00000000	     24.00477789	      0.10835678	      2.32687591	      9.47340498	    -11.12560726	     60.45031658	     46.79718127	     27.45042551	     -4.06796884	     -8.61385141	     26.52281714	     13.04299602	    148.04542693	      0.48229548	      0.75958087	     39.97742265	    -24.33405588
      1.28333333	      1.90380299	     -8.50694504	     86.16981386	      0.16560447	      1.01310257	      0.44097951	      9.01211874	      0.53960794	     -9.51482391	     10.33573714	      0.18039264	     22.31780905	      7.35545499	      0.00000000	      8.91644140	     -1.48072346	     -2.97569943	      6.66598327	      0.11634336	     25.08547887	      2.49377122	      0.00000000	      0.19334906	      0.37790856	      1.19768123	      0.35906854	      0.50261839	      1.27253630	      0.31765317	      0.91884688	      1.27253630	      0.22097864	      0.91884688	      1.04797107	      0.17954394	      0.77063114	      0.97311600	      0.11047965	      0.58538036	      0.89826092	      1.38107302	      4.27497724	      6.66114369	      0.00000000	      0.00000000	     23.65608872	      0.25951755	      1.68680327	      9.15797720	    -11.87176921	     59.22651614	     49.29248800	     25.45860130	     -4.84752736	     -5.67242215	     26.63695482	     13.88441520	    148.52250767	      0.51830242	      0.74669506	     42.62605463	    -24.35042131
      1.30000000	      2.01955319	     -8.45605097	     86.40774185	      0.16530100	      1.01336283	      0.44060484	      8.86077312	      0.63855957	     -9.60314601	     10.18746846	      0.17780487	     22.50734600	      7.55319953	      0.00000000	      8.90862008	     -1.54086360	     -2.36714481	      6.80499961	      0.11876965	     25.07863708	      1.72377775	      0.00000000	      0.19986502	      0.38010138	      1.13570889	      0.37116933	      0.50553483	      1.20669069	      0.32835824	      0.92417849	      1.20669069	      0.22842573	      0.92417849	      0.99374528	      0.18559466	      0.77510273	      0.92276347	      0.11420287	      0.58877703	      0.85178166	      1.42761584	      4.29978281	      6.31647211	      0.00000000	      0.00000000	     23.31987392	      0.44105174	      1.25442081	      8.98615214	    -12.28742774	     58.51139422	     51.09669620	     23.20752475	     -6.06589578	     -0.79953599	     26.60377658	     14.49678962	    148.89769328	      0.58056545	      0.75039675	     43.86302053	    -24.35370608
      1.31666667	      2.20240311	     -8.43240444	     86.66593882	      0.16489469	      1.01344173	      0.44017609	      8.75164970	      0.79930932	     -9.75571411	     10.04230266	      0.17527125	     22.76276350	      7.82978227	      0.00000000	      8.94400170	     -1.68766591	     -1.90726199	      7.01497799	      0.12243446	     25.20551599	      1.17593306	      0.00000000	      0.20782266	      0.39678184	      1.07473113	      0.38594746	      0.52771984	      1.14190183	      0.34143184	      0.96473536	      1.14190183	      0.23752052	      0.96473536	      0.94038974	      0.19298412	      0.80911752	      0.87321905	      0.11874987	      0.61461507	      0.80604835	      1.48445646	      4.48847551	      5.97733214	      0.00000000	      0.00000000	     23.13999274	      0.54886795	      1.09227215	      8.98190507	    -12.49279365	     58.64063225	     52.00904828	     21.71696168	     -6.89841209	      3.13592390	     26.41668837	     14.91806947	    149.50798909	      0.64073899	      0.76018284	     44.16348698	    -24.35416142
      1.33333333	      2.39189963	     -8.46512731	     86.93828567	      0.16426843	      1.01331395	      0.43980070	      8.74764632	      0.94147830	     -9.94337816	      9.96036725	      0.17384120	     23.06938925	      8.18414032	      0.00000000	      9.07339424	     -1.84458533	     -1.65140128	      7.30147672	      0.12743481	     25.47682146	      0.91099302	      0.00000000	      0.21833322	      0.42174734	      1.00480496	      0.40546662	      0.56092397	      1.06760526	      0.35869965	      1.02543649	      1.06760526	      0.24953304	      1.02543649	      0.87920434	      0.20274423	      0.86002718	      0.81640403	      0.12475560	      0.65328663	      0.75360372	      1.55953235	      4.77089029	      5.58842372	      0.00000000	      0.00000000	     23.14457874	      0.69596454	      1.20875583	      9.05927380	    -12.49469880	     59.19442297	     52.20035329	     20.67126131	     -7.13953091	      5.59248891	     26.07255396	     15.07757718	    150.08500318	      0.69336500	      0.77517074	     44.22240255	    -24.35614241
      1.35000000	      2.44668188	     -8.42972704	     87.05429206	      0.16397430	      1.01323062	      0.43924050	      8.73208992	      0.97566803	     -9.87571164	      9.96975682	      0.17400508	     23.25673476	      8.22797705	      0.00000000	      9.00618001	     -1.89339033	     -1.70413377	      7.38377752	      0.12887123	     25.50115894	      0.86222351	      0.00000000	      0.21638050	      0.43140199	      1.00073657	      0.40184023	      0.57376464	      1.06328261	      0.35549152	      1.04891079	      1.06328261	      0.24730127	      1.04891079	      0.87564450	      0.20093093	      0.87971493	      0.81309846	      0.12363982	      0.66824168	      0.75055243	      1.54558427	      4.88010556	      5.56579658	      0.00000000	      0.00000000	     23.28704027	      0.71222252	      1.21192425	      8.81565053	    -12.37194757	     59.38070126	     52.13737009	     20.65227300	     -7.13626092	      5.69154537	     25.58023267	     14.98485572	    150.20089343	      0.84465856	      0.83789726	     44.23826533	    -24.32550343
      1.36666667	      2.72340551	     -8.60347417	     87.36181821	      0.16338658	      1.01268917	      0.43951148	      8.97239190	      1.20029496	    -10.17376242	     10.01893102	      0.17486333	     23.64377637	      8.57297038	      0.00000000	      9.62176091	     -2.18620759	     -1.67520085	      8.26719774	      0.14428982	     25.94950343	      0.79569807	      0.00000000	      0.23706458	      0.46900900	      0.90267732	      0.44025263	      0.62378197	      0.95909466	      0.38947340	      1.14034848	      0.95909466	      0.27094111	      1.14034848	      0.78984266	      0.22013817	      0.95640315	      0.73342533	      0.13545870	      0.72649494	      0.67700799	      1.69332858	      5.30552361	      5.02042048	      0.00000000	      0.00000000	     23.56810749	      1.05062759	      1.61948391	      9.22981943	    -12.34507063	     60.42560062	     51.69883354	     20.22308098	     -6.33718610	      6.27697517	     25.08406144	     14.73321530	    151.32897359	      0.72398638	      0.82568544	     44.07896276	    -24.34915595
      1.38333333	      2.87305859	     -8.61166601	     87.69564300	      0.16280159	      1.01252895	      0.43990649	      9.06237392	      1.22819672	    -11.01781388	     10.13287458	      0.17685202	     23.92652672	      9.44224729	      0.00000000	      9.88716933	     -2.30931701	     -1.66046143	      8.71424172	      0.15209221	     25.86149960	      0.77493171	      0.00000000	      0.23361824	      0.48680332	      0.86653820	      0.43385243	      0.64744842	      0.92069684	      0.38381140	      1.18361359	      0.92069684	      0.26700228	      1.18361359	      0.75822093	      0.21693790	      0.99268933	      0.70406229	      0.13348946	      0.75405834	      0.64990365	      1.66871171	      5.50681653	      4.81942553	      0.00000000	      0.00000000	     23.78050247	      1.25170544	      1.53917062	      9.43413848	    -12.40913602	     61.28945351	     51.09888912	     19.78768428	     -4.68002473	      4.57693884	     24.64097725	     14.56217843	    152.72355006	      0.64512435	      0.82817660	     42.66796332	    -24.36533380
      1.40000000	      3.01733634	     -8.63827459	     87.99993793	      0.16225189	      1.01233973	      0.44065699	      9.21297629	      1.28804915	    -11.40673933	     10.28780735	      0.17955611	     24.01722702	      9.61124351	      0.00000000	     10.24647303	     -2.40803754	     -1.41924947	      9.24130018	      0.16129112	     25.68352190	      0.42812545	      0.00000000	      0.23050778	      0.50103327	      0.87891699	      0.42807600	      0.66637425	      0.93384931	      0.37870124	      1.21821229	      0.93384931	      0.26344735	      1.21821229	      0.76905237	      0.21404953	      1.02170705	      0.71412006	      0.13171215	      0.77610054	      0.65918775	      1.64649404	      5.66778857	      4.88827265	      0.00000000	      0.00000000	     23.98842499	      1.37426596	      1.09621727	      9.30112585	    -12.59221004	     61.39688965	     50.90395165	     20.09355249	     -4.05479178	      2.92996097	     24.28963451	     14.55126902	    154.35184861	      0.57370201	      0.83938846	     40.58631669	    -24.37908344
      1.41666667	      3.05385402	     -8.58131814	     88.13152500	      0.16228112	      1.01215267	      0.44103920	      9.21317198	      1.30293650	    -11.42652306	     10.35041164	      0.18064876	     24.03806266	      9.59387436	      0.00000000	     10.27668133	     -2.43668841	     -1.43854434	      9.35663410	      0.16330407	     25.50272566	      0.41958032	      0.00000000	      0.21953073	      0.50323883	      0.89538299	      0.40769052	      0.66930764	      0.95134442	      0.36066704	      1.22357488	      0.95134442	      0.25090167	      1.22357488	      0.78346011	      0.20385624	      1.02620462	      0.72749868	      0.12543986	      0.77951694	      0.67153724	      1.56808607	      5.69273826	      4.97985156	      0.00000000	      0.00000000	     24.07022132	      1.41403926	      1.06914443	      9.13165085	    -12.66342542	     61.47023396	     50.83343502	     20.10866727	     -4.04786821	      2.89638515	     23.90098728	     14.40955375	    154.43814799	      0.58548948	      0.87275919	     40.51692957	    -24.35613323
